<?xml version="1.0" standalone="no"?><!DOCTYPE svg PUBLIC "-//W3C//DTD SVG 1.1//EN" "http://www.w3.org/Graphics/SVG/1.1/DTD/svg11.dtd"><svg t="1615773870031" class="icon" viewBox="0 0 1024 1024" version="1.1" xmlns="http://www.w3.org/2000/svg" p-id="2116" xmlns:xlink="http://www.w3.org/1999/xlink" width="200" height="200"><defs><style type="text/css"></style></defs><path d="M28.444444 11.377778l967.111111 0 0 108.088889-967.111111 0L28.444444 11.377778 28.444444 11.377778zM910.222222 659.911111 910.222222 233.244444 113.777778 233.244444l0 426.666667L910.222222 659.911111 910.222222 659.911111zM227.555556 341.333333l568.888889 0 0 210.488889L227.555556 551.822222 227.555556 341.333333 227.555556 341.333333zM739.555556 904.533333c34.133333-51.2 68.266667-113.777778 96.711111-187.733333l-113.777778-39.822222c-28.444444 85.333333-68.266667 159.288889-108.088889 227.555556L415.288889 904.533333c-34.133333-91.022222-73.955556-164.977778-113.777778-227.555556l-108.088889 39.822222c45.511111 68.266667 79.644444 125.155556 108.088889 187.733333L0 904.533333l0 108.088889 1024 0 0-108.088889L739.555556 904.533333 739.555556 904.533333zM739.555556 904.533333" p-id="2117"></path></svg>